<svg xmlns="http://www.w3.org/2000/svg" xmlns:xlink="http://www.w3.org/1999/xlink" width="2000" zoomAndPan="magnify" viewBox="0 0 1500 1499.999933" height="2000" preserveAspectRatio="xMidYMid meet" version="1.0"><defs><g/><clipPath id="3f94735c1b"><rect x="0" width="761" y="0" height="177"/></clipPath><clipPath id="d2ebbfbe02"><rect x="0" width="665" y="0" height="69"/></clipPath></defs><path fill="#fec32d" d="M 939.550781 849.949219 C 935.746094 866.183594 933.8125 876.058594 925.757812 886.960938 C 920.367188 894.230469 911.554688 898.390625 902.589844 897.335938 C 894.769531 896.425781 887.214844 893.085938 879.628906 890.15625 C 791.824219 856.335938 720.949219 796.785156 649.332031 738.320312 C 632.265625 724.402344 596.25 692.136719 575.796875 675.195312 C 625.59375 639.972656 646.207031 618.179688 646.207031 618.179688 C 726.453125 687.886719 820 769.503906 917.644531 810.296875 C 933.195312 816.800781 947.753906 814.691406 939.550781 849.949219 " fill-opacity="1" fill-rule="nonzero"/><path fill="#fec32d" d="M 840.296875 587.964844 C 817.714844 570.101562 778.207031 540.445312 755.890625 523.226562 C 699.21875 479.476562 638.757812 442.964844 569.410156 422.160156 C 531.847656 410.890625 526.914062 373.113281 555.308594 339.746094 C 560.472656 333.679688 568.542969 329.695312 576.335938 331.328125 C 705.484375 358.386719 803.246094 437.578125 912.089844 537.523438 C 875.273438 556.992188 840.304688 587.964844 840.304688 587.964844 " fill-opacity="1" fill-rule="nonzero"/><path fill="#2c6db0" d="M 762.480469 681.761719 C 843.136719 600.082031 999.707031 501.394531 1078.699219 497.765625 C 1087.921875 497.34375 1096.679688 501.960938 1101.542969 509.832031 C 1109.304688 522.457031 1111.820312 537.574219 1114.164062 552.4375 C 1116.390625 566.800781 1108.921875 579.054688 1095.304688 582.871094 C 1000.96875 609.3125 909.328125 673.613281 834.964844 734.980469 C 809.953125 723.171875 762.480469 681.761719 762.480469 681.761719 " fill-opacity="1" fill-rule="nonzero"/><path fill="#2c6db0" d="M 718.460938 527.101562 C 625.824219 604.507812 525.296875 696.855469 416.621094 729.910156 C 407.449219 732.722656 397.316406 730.410156 390.71875 723.433594 C 381.839844 714.085938 378.441406 704.445312 374.84375 695.066406 C 362.269531 662.273438 365.832031 652.691406 398.386719 640.148438 C 474.796875 610.722656 538.375 561.8125 599.886719 509.53125 C 609.203125 501.613281 627.679688 486.414062 637.867188 478.027344 C 671.570312 487.066406 718.460938 527.101562 718.460938 527.101562 " fill-opacity="1" fill-rule="nonzero"/><path fill="#2c6db0" d="M 551.5625 812.699219 C 578.128906 799.074219 619.03125 783.011719 645.695312 768.007812 C 667.234375 787.027344 717.113281 824.863281 717.113281 824.863281 C 680.941406 849.070312 623.269531 885.085938 583.117188 895.460938 C 573.410156 897.980469 563.101562 894.199219 556.96875 886.257812 C 545.230469 871.046875 538.441406 854.929688 537.859375 835.734375 C 537.566406 826.09375 542.992188 817.09375 551.5625 812.699219 " fill-opacity="1" fill-rule="nonzero"/><path fill="#2c6db0" d="M 766.988281 388.65625 C 814.464844 359.921875 867.886719 338.34375 904.496094 330.507812 C 914.539062 328.351562 925.082031 332.75 930.589844 341.445312 C 941.105469 357.96875 945.46875 374.578125 944.382812 392.742188 C 943.855469 401.707031 938.90625 409.839844 931.03125 414.136719 C 908.066406 426.6875 867.152344 436.472656 843.664062 446.738281 C 843.664062 446.738281 802.191406 411.75 766.988281 388.660156 " fill-opacity="1" fill-rule="nonzero"/><path fill="#fec32d" d="M 1049.4375 626.050781 C 1113.550781 650.988281 1137.214844 659.429688 1090.414062 724.078125 C 1084.9375 731.667969 1076.238281 731.726562 1067.128906 729.558594 C 1037.957031 722.671875 986.179688 692.808594 957.503906 676.132812 C 1010.339844 639.558594 1049.4375 626.050781 1049.4375 626.050781 " fill-opacity="1" fill-rule="nonzero"/><path fill="#fec32d" d="M 441.929688 597.089844 C 426.09375 592.558594 395.96875 587.78125 382.167969 579.371094 C 375.933594 575.570312 371.738281 568.953125 370.84375 561.703125 C 368.578125 543.367188 373.28125 526.851562 382.21875 510.238281 C 387.101562 501.160156 397.070312 495.910156 407.308594 497.046875 C 438.058594 500.464844 493.628906 523.714844 523.714844 537.480469 C 480.144531 577.621094 441.929688 597.089844 441.929688 597.089844 " fill-opacity="1" fill-rule="nonzero"/><g transform="matrix(1, 0, 0, 1, 378, 924)"><g clip-path="url(#3f94735c1b)"><g fill="#2c6db0" fill-opacity="1"><g transform="translate(0.791857, 142.61726)"><g><path d="M 11.90625 -110.75 L 101.40625 -110.75 L 101.40625 -84.1875 L 47.484375 -84.1875 L 47.484375 -65.1875 L 93.84375 -65.1875 L 93.84375 -39.765625 L 47.484375 -39.765625 L 47.484375 0 L 11.90625 0 Z M 11.90625 -110.75 "/></g></g></g><g fill="#2c6db0" fill-opacity="1"><g transform="translate(122.454878, 142.61726)"><g><path d="M 86.125 0 L 81.453125 -15.609375 L 42.65625 -15.609375 L 37.984375 0 L 1.609375 0 L 42.015625 -110.75 L 83.375 -110.75 L 123.78125 0 Z M 50.0625 -40.40625 L 74.046875 -40.40625 L 62.453125 -79.84375 L 61.8125 -79.84375 Z M 50.0625 -40.40625 "/></g></g></g><g fill="#2c6db0" fill-opacity="1"><g transform="translate(261.980454, 142.61726)"><g><path d="M 85.640625 -110.75 C 91.210938 -110.75 96.332031 -109.59375 101 -107.28125 C 105.675781 -104.976562 109.378906 -101.734375 112.109375 -97.546875 C 114.847656 -93.359375 116.21875 -88.691406 116.21875 -83.546875 C 116.21875 -69.910156 110.046875 -61.320312 97.703125 -57.78125 L 97.703125 -57.140625 C 111.765625 -53.921875 118.796875 -44.691406 118.796875 -29.453125 C 118.796875 -23.660156 117.375 -18.535156 114.53125 -14.078125 C 111.6875 -9.628906 107.796875 -6.171875 102.859375 -3.703125 C 97.921875 -1.234375 92.5 0 86.59375 0 L 11.90625 0 L 11.90625 -110.75 Z M 47.484375 -67.609375 L 71.953125 -67.609375 C 74.316406 -67.609375 76.273438 -68.4375 77.828125 -70.09375 C 79.378906 -71.757812 80.15625 -73.828125 80.15625 -76.296875 L 80.15625 -77.90625 C 80.15625 -80.269531 79.347656 -82.28125 77.734375 -83.9375 C 76.128906 -85.601562 74.203125 -86.4375 71.953125 -86.4375 L 47.484375 -86.4375 Z M 47.484375 -25.75 L 74.53125 -25.75 C 76.882812 -25.75 78.835938 -26.582031 80.390625 -28.25 C 81.953125 -29.914062 82.734375 -31.984375 82.734375 -34.453125 L 82.734375 -36.0625 C 82.734375 -38.53125 81.953125 -40.59375 80.390625 -42.25 C 78.835938 -43.914062 76.882812 -44.75 74.53125 -44.75 L 47.484375 -44.75 Z M 47.484375 -25.75 "/></g></g></g><g fill="#2c6db0" fill-opacity="1"><g transform="translate(401.50603, 142.61726)"><g><path d="M 117.03125 -76.78125 C 117.03125 -70.019531 115.203125 -63.898438 111.546875 -58.421875 C 107.898438 -52.953125 102.585938 -48.929688 95.609375 -46.359375 L 120.25 0 L 80.328125 0 L 60.6875 -40.40625 L 47.484375 -40.40625 L 47.484375 0 L 11.90625 0 L 11.90625 -110.75 L 79.671875 -110.75 C 87.617188 -110.75 94.410156 -109.21875 100.046875 -106.15625 C 105.679688 -103.101562 109.921875 -98.972656 112.765625 -93.765625 C 115.609375 -88.554688 117.03125 -82.894531 117.03125 -76.78125 Z M 80.8125 -75.328125 C 80.8125 -78.222656 79.84375 -80.632812 77.90625 -82.5625 C 75.976562 -84.5 73.617188 -85.46875 70.828125 -85.46875 L 47.484375 -85.46875 L 47.484375 -65.03125 L 70.828125 -65.03125 C 73.617188 -65.03125 75.976562 -66.019531 77.90625 -68 C 79.84375 -69.988281 80.8125 -72.429688 80.8125 -75.328125 Z M 80.8125 -75.328125 "/></g></g></g><g fill="#2c6db0" fill-opacity="1"><g transform="translate(541.031606, 142.61726)"><g><path d="M 13.515625 0 L 13.515625 -110.75 L 49.09375 -110.75 L 49.09375 0 Z M 13.515625 0 "/></g></g></g><g fill="#2c6db0" fill-opacity="1"><g transform="translate(617.957756, 142.61726)"><g><path d="M 64.703125 -112.671875 C 81.128906 -112.671875 94.113281 -108.566406 103.65625 -100.359375 C 113.207031 -92.148438 117.984375 -80.425781 117.984375 -65.1875 L 84.03125 -65.1875 C 84.03125 -71.625 82.335938 -76.722656 78.953125 -80.484375 C 75.578125 -84.242188 70.773438 -86.125 64.546875 -86.125 C 57.359375 -86.125 52.070312 -83.867188 48.6875 -79.359375 C 45.3125 -74.847656 43.625 -68.570312 43.625 -60.53125 L 43.625 -50.21875 C 43.625 -42.28125 45.3125 -36.03125 48.6875 -31.46875 C 52.070312 -26.90625 57.25 -24.625 64.21875 -24.625 C 71.09375 -24.625 76.300781 -26.394531 79.84375 -29.9375 C 83.382812 -33.476562 85.15625 -38.46875 85.15625 -44.90625 L 117.984375 -44.90625 C 117.984375 -29.78125 113.34375 -18.191406 104.0625 -10.140625 C 94.78125 -2.085938 81.660156 1.9375 64.703125 1.9375 C 45.816406 1.9375 31.519531 -2.890625 21.8125 -12.546875 C 12.101562 -22.210938 7.25 -36.488281 7.25 -55.375 C 7.25 -74.257812 12.101562 -88.53125 21.8125 -98.1875 C 31.519531 -107.84375 45.816406 -112.671875 64.703125 -112.671875 Z M 64.703125 -112.671875 "/></g></g></g></g></g><g transform="matrix(1, 0, 0, 1, 428, 1100)"><g clip-path="url(#d2ebbfbe02)"><g fill="#fec32d" fill-opacity="1"><g transform="translate(3.203653, 53.236816)"><g><path d="M 5.328125 0 L 5.328125 -43.671875 L 19.359375 -43.671875 L 19.359375 0 Z M 5.328125 0 "/></g></g></g><g fill="#fec32d" fill-opacity="1"><g transform="translate(50.166708, 53.236816)"><g><path d="M 35.921875 0 L 17.578125 -21.203125 L 17.578125 0 L 4.703125 0 L 4.703125 -43.671875 L 16.953125 -43.671875 L 35.28125 -22.15625 L 35.28125 -43.671875 L 48.171875 -43.671875 L 48.171875 0 Z M 35.921875 0 "/></g></g></g><g fill="#fec32d" fill-opacity="1"><g transform="translate(125.294416, 53.236816)"><g><path d="M 23.609375 -43.671875 C 38.878906 -43.671875 46.515625 -36.390625 46.515625 -21.828125 C 46.515625 -7.273438 38.878906 0 23.609375 0 L 4.703125 0 L 4.703125 -43.671875 Z M 18.71875 -10.46875 L 23.359375 -10.46875 C 29.234375 -10.46875 32.171875 -13.617188 32.171875 -19.921875 L 32.171875 -23.734375 C 32.171875 -30.035156 29.234375 -33.1875 23.359375 -33.1875 L 18.71875 -33.1875 Z M 18.71875 -10.46875 "/></g></g></g><g fill="#fec32d" fill-opacity="1"><g transform="translate(196.933257, 53.236816)"><g><path d="M 48.171875 -17.578125 C 48.171875 -11.609375 46.285156 -7.054688 42.515625 -3.921875 C 38.753906 -0.796875 33.40625 0.765625 26.46875 0.765625 C 19.53125 0.765625 14.164062 -0.796875 10.375 -3.921875 C 6.59375 -7.054688 4.703125 -11.609375 4.703125 -17.578125 L 4.703125 -43.671875 L 18.71875 -43.671875 L 18.71875 -17.765625 C 18.71875 -15.316406 19.375 -13.359375 20.6875 -11.890625 C 22 -10.429688 23.90625 -9.703125 26.40625 -9.703125 C 28.894531 -9.703125 30.804688 -10.441406 32.140625 -11.921875 C 33.472656 -13.410156 34.140625 -15.359375 34.140625 -17.765625 L 34.140625 -43.671875 L 48.171875 -43.671875 Z M 48.171875 -17.578125 "/></g></g></g><g fill="#fec32d" fill-opacity="1"><g transform="translate(272.060965, 53.236816)"><g><path d="M 23.046875 -44.421875 C 28.628906 -44.421875 33.21875 -43.289062 36.8125 -41.03125 C 40.40625 -38.769531 42.242188 -35.414062 42.328125 -30.96875 L 42.328125 -30.21875 L 29.203125 -30.21875 L 29.203125 -30.46875 C 29.203125 -31.738281 28.734375 -32.796875 27.796875 -33.640625 C 26.867188 -34.484375 25.453125 -34.90625 23.546875 -34.90625 C 21.679688 -34.90625 20.25 -34.628906 19.25 -34.078125 C 18.257812 -33.523438 17.765625 -32.847656 17.765625 -32.046875 C 17.765625 -30.910156 18.441406 -30.066406 19.796875 -29.515625 C 21.148438 -28.960938 23.332031 -28.390625 26.34375 -27.796875 C 29.851562 -27.078125 32.738281 -26.328125 35 -25.546875 C 37.269531 -24.765625 39.25 -23.484375 40.9375 -21.703125 C 42.625 -19.929688 43.492188 -17.519531 43.546875 -14.46875 C 43.546875 -9.3125 41.796875 -5.484375 38.296875 -2.984375 C 34.804688 -0.484375 30.144531 0.765625 24.3125 0.765625 C 17.5 0.765625 12.195312 -0.375 8.40625 -2.65625 C 4.625 -4.945312 2.734375 -8.988281 2.734375 -14.78125 L 16 -14.78125 C 16 -12.582031 16.566406 -11.113281 17.703125 -10.375 C 18.847656 -9.632812 20.628906 -9.265625 23.046875 -9.265625 C 24.816406 -9.265625 26.285156 -9.453125 27.453125 -9.828125 C 28.617188 -10.210938 29.203125 -11 29.203125 -12.1875 C 29.203125 -13.238281 28.554688 -14.03125 27.265625 -14.5625 C 25.972656 -15.09375 23.863281 -15.65625 20.9375 -16.25 C 17.382812 -17.007812 14.441406 -17.800781 12.109375 -18.625 C 9.785156 -19.445312 7.753906 -20.8125 6.015625 -22.71875 C 4.285156 -24.625 3.421875 -27.207031 3.421875 -30.46875 C 3.421875 -35.25 5.269531 -38.769531 8.96875 -41.03125 C 12.675781 -43.289062 17.367188 -44.421875 23.046875 -44.421875 Z M 23.046875 -44.421875 "/></g></g></g><g fill="#fec32d" fill-opacity="1"><g transform="translate(340.147485, 53.236816)"><g><path d="M 29.828125 -32.5 L 29.828125 0 L 15.796875 0 L 15.796875 -32.5 L 1.453125 -32.5 L 1.453125 -43.671875 L 44.109375 -43.671875 L 44.109375 -32.5 Z M 29.828125 -32.5 "/></g></g></g><g fill="#fec32d" fill-opacity="1"><g transform="translate(408.234006, 53.236816)"><g><path d="M 46.140625 -30.28125 C 46.140625 -27.613281 45.421875 -25.195312 43.984375 -23.03125 C 42.546875 -20.875 40.453125 -19.289062 37.703125 -18.28125 L 47.40625 0 L 31.671875 0 L 23.921875 -15.9375 L 18.71875 -15.9375 L 18.71875 0 L 4.703125 0 L 4.703125 -43.671875 L 31.421875 -43.671875 C 34.546875 -43.671875 37.21875 -43.066406 39.4375 -41.859375 C 41.664062 -40.648438 43.335938 -39.019531 44.453125 -36.96875 C 45.578125 -34.914062 46.140625 -32.6875 46.140625 -30.28125 Z M 31.859375 -29.703125 C 31.859375 -30.847656 31.476562 -31.800781 30.71875 -32.5625 C 29.957031 -33.320312 29.023438 -33.703125 27.921875 -33.703125 L 18.71875 -33.703125 L 18.71875 -25.640625 L 27.921875 -25.640625 C 29.023438 -25.640625 29.957031 -26.03125 30.71875 -26.8125 C 31.476562 -27.59375 31.859375 -28.554688 31.859375 -29.703125 Z M 31.859375 -29.703125 "/></g></g></g><g fill="#fec32d" fill-opacity="1"><g transform="translate(479.872848, 53.236816)"><g><path d="M 5.328125 0 L 5.328125 -43.671875 L 19.359375 -43.671875 L 19.359375 0 Z M 5.328125 0 "/></g></g></g><g fill="#fec32d" fill-opacity="1"><g transform="translate(526.835903, 53.236816)"><g><path d="M 4.703125 -43.671875 L 42.453125 -43.671875 L 42.453125 -33.1875 L 18.71875 -33.1875 L 18.71875 -27.171875 L 39.03125 -27.171875 L 39.03125 -17.140625 L 18.71875 -17.140625 L 18.71875 -10.46875 L 42.90625 -10.46875 L 42.90625 0 L 4.703125 0 Z M 4.703125 -43.671875 "/></g></g></g><g fill="#fec32d" fill-opacity="1"><g transform="translate(594.922423, 53.236816)"><g><path d="M 23.046875 -44.421875 C 28.628906 -44.421875 33.21875 -43.289062 36.8125 -41.03125 C 40.40625 -38.769531 42.242188 -35.414062 42.328125 -30.96875 L 42.328125 -30.21875 L 29.203125 -30.21875 L 29.203125 -30.46875 C 29.203125 -31.738281 28.734375 -32.796875 27.796875 -33.640625 C 26.867188 -34.484375 25.453125 -34.90625 23.546875 -34.90625 C 21.679688 -34.90625 20.25 -34.628906 19.25 -34.078125 C 18.257812 -33.523438 17.765625 -32.847656 17.765625 -32.046875 C 17.765625 -30.910156 18.441406 -30.066406 19.796875 -29.515625 C 21.148438 -28.960938 23.332031 -28.390625 26.34375 -27.796875 C 29.851562 -27.078125 32.738281 -26.328125 35 -25.546875 C 37.269531 -24.765625 39.25 -23.484375 40.9375 -21.703125 C 42.625 -19.929688 43.492188 -17.519531 43.546875 -14.46875 C 43.546875 -9.3125 41.796875 -5.484375 38.296875 -2.984375 C 34.804688 -0.484375 30.144531 0.765625 24.3125 0.765625 C 17.5 0.765625 12.195312 -0.375 8.40625 -2.65625 C 4.625 -4.945312 2.734375 -8.988281 2.734375 -14.78125 L 16 -14.78125 C 16 -12.582031 16.566406 -11.113281 17.703125 -10.375 C 18.847656 -9.632812 20.628906 -9.265625 23.046875 -9.265625 C 24.816406 -9.265625 26.285156 -9.453125 27.453125 -9.828125 C 28.617188 -10.210938 29.203125 -11 29.203125 -12.1875 C 29.203125 -13.238281 28.554688 -14.03125 27.265625 -14.5625 C 25.972656 -15.09375 23.863281 -15.65625 20.9375 -16.25 C 17.382812 -17.007812 14.441406 -17.800781 12.109375 -18.625 C 9.785156 -19.445312 7.753906 -20.8125 6.015625 -22.71875 C 4.285156 -24.625 3.421875 -27.207031 3.421875 -30.46875 C 3.421875 -35.25 5.269531 -38.769531 8.96875 -41.03125 C 12.675781 -43.289062 17.367188 -44.421875 23.046875 -44.421875 Z M 23.046875 -44.421875 "/></g></g></g></g></g></svg>